<svg width="180" height="30" viewBox="0 0 180 30" fill="none" xmlns="http://www.w3.org/2000/svg">
<path d="M0 0H12.2494V28.9686H0V27.2671H0.855007C2.38725 27.2671 3.41156 26.3697 3.41156 24.7105V4.2581C3.41156 2.59888 2.38725 1.70155 0.855007 1.70155H0V0ZM21.5529 13.5447V13.46C24.7867 12.1817 27.047 10.1331 27.047 6.39138C27.047 2.85284 24.4481 0 16.6091 0H14.5859V2.16714C15.898 2.32799 17.244 3.17453 17.244 7.45803C17.244 11.386 15.7118 12.605 14.5859 12.9521V15.2123H14.7721C16.2621 15.2123 19.1572 15.8134 19.1572 21.1805C19.1572 26.1666 16.6007 27.0978 15.3647 27.0978C15.0854 27.0978 14.8145 27.047 14.5774 26.9454V28.9686H15.5764C23.3307 28.9686 28.9517 26.4967 28.9517 20.5794C28.9686 17.2102 26.3698 14.442 21.5529 13.5447ZM141.694 9.15957H143.565L141.44 0H131.756V2.13328H133C136.708 2.13328 139.137 4.34275 141.694 9.15957ZM136.666 17.8959V18.7509H138.579V9.84527H136.666V10.7003C136.666 12.0209 135.853 13.2568 134.109 13.2568H131.756V15.3478H134.109C135.861 15.3393 136.666 16.5753 136.666 17.8959ZM133 26.8438C132.501 26.8438 132.086 26.7507 131.756 26.5814V28.9686H142.295L144.852 18.5308H142.981C140.162 23.8132 136.708 26.8438 133 26.8438ZM117.153 1.70155H118.008C119.328 1.70155 120.564 2.64121 120.564 4.2581V24.7105C120.564 26.3697 119.328 27.2671 118.008 27.2671H117.153V28.9686H129.411V0H117.153V1.70155ZM158.583 24.7105V16.6599H158.591V0H146.342V1.70155H147.197C148.517 1.70155 149.753 2.51423 149.753 4.2581V24.7105C149.753 26.5814 148.517 27.2671 147.197 27.2671H146.342V28.9686H161.994V27.2671H161.148C159.818 27.2671 158.583 26.5391 158.583 24.7105ZM178.679 27.0554C177.316 27.0554 175.7 26.5052 172.542 20.2831L169.858 15.043C172.288 14.1034 175.226 11.2505 175.226 7.37337C175.226 3.36923 172.627 0 165.981 0H160.936V2.13328C162.409 2.16714 164.237 2.98829 164.237 8.22838C164.237 13.0452 162.231 14.3235 161.3 14.3235C161.173 14.3235 161.054 14.315 160.936 14.3065V19.1149L162.79 23.2714C165.008 28.2575 168.284 29.4088 173.058 29.4088C177.316 29.4088 180 28.5538 180 28.5538V26.8523C179.992 26.8438 179.399 27.0554 178.679 27.0554ZM43.5207 20.3678V4.2581C43.5207 2.51423 44.7566 1.70155 46.0772 1.70155H46.9322V0H30.103V1.70155H30.958C32.2786 1.70155 33.5146 2.55655 33.5146 4.2581V19.8091C33.5146 26.1158 38.416 29.866 44.7228 29.866C45.654 29.866 46.5597 29.7898 47.4232 29.6374V25.4978C44.9598 25.0153 43.5207 22.9074 43.5207 20.3678ZM50.1237 1.70155H50.9787C52.2993 1.70155 53.5352 2.51423 53.5352 4.2581V20.3593C53.5352 22.8397 52.1215 24.9222 49.7597 25.4555V29.0025C53.4337 27.6311 55.8802 24.6174 55.8802 20.1392V4.2581C55.8802 2.55655 57.1161 1.70155 58.4367 1.70155H59.2917V0H50.1237V1.70155ZM78.4066 1.70155V0H61.5774V1.70155H62.4324C63.753 1.70155 64.9889 2.55655 64.9889 4.2581V24.7105C64.9889 26.4967 63.753 27.2671 62.4324 27.2671H61.5774V28.9686H74.9951V24.4989V24.3211V4.2581C74.9951 2.51423 76.231 1.70155 77.5516 1.70155H78.4066ZM77.4331 26.8438C77.4077 26.8438 77.3823 26.8438 77.3484 26.8438V28.9771H85.8646L88.4212 18.5392H86.5503C83.9938 23.3476 81.1325 26.8438 77.4331 26.8438ZM105.335 26.8438C105.31 26.8438 105.284 26.8438 105.259 26.8438V28.9771H113.775L116.332 18.5392H114.461C111.896 23.3476 109.043 26.8438 105.335 26.8438ZM106.317 1.70155V0H89.4878V1.70155H90.3428C91.6635 1.70155 92.8994 2.55655 92.8994 4.2581V24.7105C92.8994 26.4967 91.6635 27.2671 90.3428 27.2671H89.4878V28.9686H102.906V24.4989V24.4142V4.2581C102.906 2.51423 104.141 1.70155 105.462 1.70155H106.317Z" fill="white"/>
</svg>
