<svg width="30" height="26" viewBox="0 0 30 26" fill="none" xmlns="http://www.w3.org/2000/svg">
<path fill-rule="evenodd" clip-rule="evenodd" d="M10.8745 16.4865H24.0637C24.856 16.487 25.5721 16.0147 25.8838 15.2863L29.8405 6.05383C30.1021 5.44243 30.039 4.74052 29.6726 4.18557C29.3061 3.63062 28.6854 3.29689 28.0204 3.2973H6.25827C5.87786 3.3022 5.50694 3.41668 5.18994 3.62703L3.87102 0.593513C3.71415 0.234071 3.35975 0.00124872 2.96757 0H0.989189C0.442875 0 0 0.442875 0 0.989189C0 1.5355 0.442875 1.97838 0.989189 1.97838H2.30811L8.32897 15.7347C9.07459 17.9657 8.79958 20.4119 7.57719 22.4216C7.57561 23.7638 8.3877 24.9729 9.6307 25.4792C10.8737 25.9855 12.2995 25.6878 13.2362 24.7265C14.1728 23.7652 14.4332 22.3321 13.8948 21.1027H21.0499C20.4682 22.4359 20.8288 23.9928 21.9374 24.9345C23.0461 25.8762 24.6408 25.9801 25.8623 25.1903C27.0838 24.4006 27.6435 22.9037 27.2398 21.5062C26.8361 20.1088 25.5643 19.141 24.1098 19.1243H11.0328H10.9009C10.1724 19.1243 9.58194 18.5338 9.58194 17.8054C9.58194 17.077 10.1724 16.4865 10.9009 16.4865H10.8745ZM28.0204 5.27567L24.0637 14.5081H10.215L6.25827 5.27567H28.0204ZM12.1934 22.4216C12.1934 23.15 11.6029 23.7405 10.8745 23.7405C10.1461 23.7405 9.55556 23.15 9.55556 22.4216C9.55556 21.6932 10.1461 21.1027 10.8745 21.1027C11.6029 21.1027 12.1934 21.6932 12.1934 22.4216ZM25.3826 22.4216C25.3826 23.15 24.7921 23.7405 24.0637 23.7405C23.3352 23.7405 22.7447 23.15 22.7447 22.4216C22.7447 21.6932 23.3352 21.1027 24.0637 21.1027C24.7921 21.1027 25.3826 21.6932 25.3826 22.4216Z" fill="white"/>
</svg>
